<svg width="10" height="16" viewBox="0 0 10 16" fill="none" xmlns="http://www.w3.org/2000/svg">
<path d="M6.69932 15.2125C6.87906 15.3985 7.10782 15.5 7.37742 15.5C7.91664 15.5 8.34964 15.0603 8.34964 14.5023C8.34964 14.2232 8.23526 13.9696 8.04735 13.7751L2.32842 7.99154L8.04735 2.22492C8.23526 2.03044 8.34964 1.76832 8.34964 1.49775C8.34964 0.939684 7.91664 0.5 7.37742 0.5C7.10782 0.5 6.87906 0.601466 6.69932 0.787486L0.343136 7.21364C0.114379 7.43348 0.0081699 7.70406 0 8C0 8.29594 0.114379 8.54961 0.343136 8.7779L6.69932 15.2125Z" fill="black"/>
</svg>
