<?xml version="1.0" standalone="no"?>
<!DOCTYPE svg PUBLIC "-//W3C//DTD SVG 20010904//EN"
 "http://www.w3.org/TR/2001/REC-SVG-20010904/DTD/svg10.dtd">
<svg version="1.0" xmlns="http://www.w3.org/2000/svg"
 width="512.000000pt" height="512.000000pt" viewBox="0 0 512.000000 512.000000"
 preserveAspectRatio="xMidYMid meet">

<g transform="translate(0.000000,512.000000) scale(0.100000,-0.100000)"
fill="#FFF" stroke="none">
<path d="M1825 4626 c-73 -19 -113 -38 -181 -88 -87 -65 -133 -139 -189 -308
-28 -84 -57 -153 -73 -172 -47 -56 -63 -58 -386 -58 -181 0 -316 -4 -348 -11
-167 -36 -308 -165 -358 -328 -19 -61 -20 -100 -20 -1421 0 -1321 1 -1360 20
-1421 49 -161 177 -280 346 -324 51 -13 293 -15 1924 -15 1643 0 1873 2 1925
15 169 44 296 163 345 324 19 61 20 100 20 1421 0 1321 -1 1360 -20 1421 -49
161 -176 280 -345 324 -47 12 -122 15 -357 15 -327 0 -343 2 -390 58 -16 19
-45 88 -72 170 -26 77 -60 161 -77 187 -66 105 -187 189 -307 214 -79 16
-1390 14 -1457 -3z m1418 -320 c54 -22 82 -67 127 -203 24 -70 49 -141 58
-158 53 -108 165 -201 297 -248 17 -6 171 -13 367 -16 321 -6 338 -7 365 -27
15 -11 38 -36 51 -54 l22 -33 0 -1327 0 -1327 -22 -33 c-13 -18 -36 -43 -51
-54 l-28 -21 -1869 0 -1869 0 -28 21 c-15 11 -38 36 -50 54 l-23 33 0 1327 0
1327 22 33 c13 18 36 43 51 54 27 20 43 21 365 26 369 6 387 9 490 74 111 70
165 151 228 338 48 145 75 191 129 214 45 20 1321 20 1368 0z"/>
<path d="M2349 3555 c-446 -84 -810 -395 -948 -811 -50 -150 -64 -235 -64
-394 0 -112 5 -169 22 -250 106 -505 512 -889 1021 -966 432 -65 865 107 1141
454 331 414 353 995 56 1440 -171 255 -417 428 -726 509 -121 32 -380 41 -502
18z m388 -321 c170 -35 313 -108 435 -223 135 -127 220 -268 265 -440 33 -128
35 -317 4 -433 -73 -276 -233 -477 -476 -598 -149 -75 -229 -93 -405 -93 -118
0 -160 4 -225 22 -309 84 -544 308 -639 609 -160 508 157 1043 684 1156 89 20
264 19 357 0z"/>
</g>
</svg>
