<?xml version="1.0" standalone="no"?>
<!DOCTYPE svg PUBLIC "-//W3C//DTD SVG 20010904//EN"
 "http://www.w3.org/TR/2001/REC-SVG-20010904/DTD/svg10.dtd">
<svg version="1.0" xmlns="http://www.w3.org/2000/svg"
 width="128.000000pt" height="128.000000pt" viewBox="0 0 128.000000 128.000000"
 preserveAspectRatio="xMidYMid meet">

<g transform="translate(0.000000,128.000000) scale(0.100000,-0.100000)"
fill="#fff" stroke="none">
<path d="M1170 1205 c-31 -18 -71 -19 -105 -3 -37 17 -49 0 -31 -44 16 -37 12
-68 -12 -106 -24 -37 -2 -47 47 -21 40 21 44 21 84 5 49 -19 66 -9 49 29 -16
34 -15 74 3 105 18 31 19 50 3 50 -7 -1 -24 -7 -38 -15z m-20 -87 c0 -30 -3
-33 -33 -34 -31 0 -33 2 -33 33 0 31 2 33 33 33 31 0 33 -2 33 -32z"/>
<path d="M814 1195 c-23 -18 -74 -19 -109 -3 -36 16 -50 0 -30 -38 20 -39 19
-63 -6 -103 -28 -46 -13 -58 39 -32 49 25 58 26 96 6 38 -20 54 -6 38 30 -16
35 -15 77 3 101 32 42 10 70 -31 39z m-24 -87 c0 -30 -3 -33 -30 -33 -27 0
-30 3 -30 33 0 29 3 32 30 32 27 0 30 -3 30 -32z"/>
<path d="M453 598 c-300 -300 -393 -398 -393 -417 0 -32 89 -121 121 -121 18
0 116 93 410 387 213 214 389 396 393 407 5 14 -8 33 -52 77 -32 33 -65 59
-73 59 -7 0 -190 -177 -406 -392z m454 310 c18 -18 33 -36 33 -42 0 -6 -17
-27 -37 -48 l-37 -38 -43 42 -43 42 37 38 c20 21 42 38 47 38 6 0 25 -14 43
-32z m-112 -118 l40 -40 -273 -273 -272 -272 -42 43 -43 42 270 270 c148 149
272 270 275 270 3 0 24 -18 45 -40z m-570 -570 l39 -40 -42 -43 -42 -42 -42
42 -42 43 39 40 c21 22 42 40 45 40 3 0 24 -18 45 -40z"/>
<path d="M1156 845 c-24 -18 -58 -19 -103 -3 -18 6 -35 9 -39 5 -4 -3 1 -25
10 -48 16 -40 16 -43 -5 -86 -27 -57 -16 -73 32 -44 40 25 64 26 103 6 38 -20
54 -6 38 30 -16 35 -15 86 3 109 31 41 3 63 -39 31z m-16 -85 c0 -27 -3 -30
-32 -30 -30 0 -33 3 -33 30 0 27 3 30 33 30 29 0 32 -3 32 -30z"/>
</g>
</svg>
