<?xml version="1.0" standalone="no"?>
<!DOCTYPE svg PUBLIC "-//W3C//DTD SVG 20010904//EN"
 "http://www.w3.org/TR/2001/REC-SVG-20010904/DTD/svg10.dtd">
<svg version="1.0" xmlns="http://www.w3.org/2000/svg"
 width="512.000000pt" height="512.000000pt" viewBox="0 0 512.000000 512.000000"
 preserveAspectRatio="xMidYMid meet">

<g transform="translate(0.000000,512.000000) scale(0.100000,-0.100000)"
fill="#fff" stroke="none">
<path d="M991 5090 c45 -70 319 -570 319 -582 -1 -7 -74 -143 -164 -303 -90
-159 -162 -292 -161 -293 2 -2 137 71 299 162 163 91 298 166 301 166 2 0 137
-75 300 -166 163 -91 298 -164 299 -162 2 1 -70 134 -160 293 -90 160 -163
297 -164 305 0 8 74 146 164 305 89 160 162 292 160 294 -2 3 -403 -218 -574
-316 -24 -14 -37 -8 -313 147 -158 88 -295 164 -305 167 -16 7 -16 5 -1 -17z"/>
<path d="M3912 5102 c2 -4 77 -140 166 -300 l164 -292 -166 -297 c-91 -163
-165 -298 -163 -300 2 -2 137 72 300 163 l297 166 297 -166 c163 -91 298 -164
300 -162 2 2 -71 137 -162 300 l-166 297 166 296 c91 163 164 298 162 300 -2
2 -137 -71 -300 -162 l-296 -166 -296 165 c-163 91 -298 166 -301 166 -3 0 -4
-4 -2 -8z"/>
<path d="M3018 3886 c-20 -7 -54 -27 -75 -44 -21 -17 -684 -678 -1474 -1469
-1322 -1323 -1438 -1442 -1453 -1487 -20 -62 -20 -100 0 -162 15 -43 53 -85
338 -370 285 -285 327 -323 370 -338 62 -20 100 -20 162 0 45 15 164 132 1511
1478 803 803 1469 1476 1478 1495 9 18 19 57 22 87 11 105 4 115 -341 462
-334 336 -367 362 -455 362 -26 -1 -63 -7 -83 -14z m312 -561 l255 -255 -293
-293 -292 -292 -257 258 -258 257 290 290 c159 159 292 290 295 290 3 0 120
-115 260 -255z"/>
<path d="M3912 2179 c4 -9 79 -145 167 -303 89 -158 161 -289 161 -291 0 -3
-75 -138 -166 -301 -91 -162 -164 -297 -162 -299 1 -1 134 71 293 161 160 90
297 163 305 163 8 0 146 -73 305 -163 160 -90 292 -162 294 -160 2 2 -72 137
-164 301 -160 286 -166 299 -152 323 98 171 319 572 316 574 -2 2 -134 -71
-294 -160 -159 -90 -296 -164 -303 -164 -12 0 -513 275 -582 319 -22 15 -24
15 -18 0z"/>
</g>
</svg>
