<svg width="25" height="17" viewBox="0 0 25 17" fill="none" xmlns="http://www.w3.org/2000/svg">
<path d="M16.7087 8.5752C18.6335 8.5752 20.2595 6.87012 20.2595 4.66406C20.2595 2.51074 18.6247 0.858398 16.7087 0.858398C14.8015 0.858398 13.1579 2.53711 13.1667 4.68164C13.1667 6.87012 14.7839 8.5752 16.7087 8.5752ZM6.54852 8.77734C8.22723 8.77734 9.64227 7.2832 9.64227 5.36719C9.64227 3.48633 8.20966 2.05371 6.54852 2.05371C4.88739 2.05371 3.45477 3.5127 3.46356 5.38477C3.46356 7.2832 4.8786 8.77734 6.54852 8.77734ZM1.70575 16.7578H8.29755C7.35712 15.4131 8.36786 12.7588 10.3542 11.1943C9.38739 10.5703 8.13055 10.1133 6.54852 10.1133C2.61981 10.1133 0.0797729 13.0049 0.0797729 15.3867C0.0797729 16.2568 0.519226 16.7578 1.70575 16.7578ZM11.2331 16.749H22.1843C23.6345 16.749 24.1354 16.3096 24.1354 15.501C24.1354 13.2422 21.2614 10.1309 16.7087 10.1309C12.1472 10.1309 9.28192 13.2422 9.28192 15.501C9.28192 16.3096 9.7829 16.749 11.2331 16.749Z" fill="#1C1C1E"/>
</svg>
