<?xml version="1.0" standalone="no"?>
<!DOCTYPE svg PUBLIC "-//W3C//DTD SVG 20010904//EN"
 "http://www.w3.org/TR/2001/REC-SVG-20010904/DTD/svg10.dtd">
<svg version="1.0" xmlns="http://www.w3.org/2000/svg"
 width="512.000000pt" height="512.000000pt" viewBox="0 0 512.000000 512.000000"
 preserveAspectRatio="xMidYMid meet">

<g transform="translate(0.000000,512.000000) scale(0.100000,-0.100000)"
fill="#FFF" stroke="none">
<path d="M841 4624 c-169 -45 -301 -180 -346 -351 -23 -87 -22 -2700 0 -2788
45 -172 179 -305 352 -350 87 -23 2700 -22 2788 0 172 45 305 179 350 352 23
86 23 2700 0 2786 -45 173 -178 307 -350 352 -86 22 -2710 22 -2794 -1z m2765
-330 c15 -11 37 -33 48 -48 21 -27 21 -30 21 -1366 0 -1336 0 -1339 -21 -1366
-11 -15 -33 -37 -48 -48 -27 -21 -30 -21 -1366 -21 -1336 0 -1339 0 -1366 21
-15 11 -37 33 -48 48 -21 27 -21 32 -24 1339 -1 722 0 1326 3 1344 7 40 49 91
90 109 25 11 269 13 1357 11 1323 -2 1327 -2 1354 -23z"/>
<path d="M4415 3826 c-37 -17 -70 -52 -84 -89 -8 -19 -11 -380 -11 -1152 0
-927 -2 -1136 -14 -1197 -52 -272 -247 -483 -525 -566 -51 -15 -168 -17 -1228
-22 -1164 -5 -1172 -5 -1199 -26 -53 -39 -69 -71 -69 -134 0 -63 16 -95 69
-134 27 -21 34 -21 1169 -24 1010 -2 1153 -1 1240 13 214 35 390 122 546 270
175 166 277 358 316 592 14 87 15 230 13 1240 -3 1135 -3 1142 -24 1169 -11
15 -32 37 -46 47 -34 25 -113 32 -153 13z"/>
</g>
</svg>
