<svg width="8" height="16" viewBox="0 0 8 16" fill="none" xmlns="http://www.w3.org/2000/svg">
<path d="M1.58121 0.787486C1.409 0.601466 1.18982 0.5 0.931507 0.5C0.414873 0.5 0 0.939685 0 1.49775C0 1.77678 0.109589 2.03044 0.289628 2.22492L5.76908 8.00846L0.289628 13.7751C0.109589 13.9696 0 14.2317 0 14.5023C0 15.0603 0.414873 15.5 0.931507 15.5C1.18982 15.5 1.409 15.3985 1.58121 15.2125L7.67123 8.78636C7.89041 8.56652 7.99217 8.29594 8 8C8 7.70406 7.89041 7.45039 7.67123 7.2221L1.58121 0.787486Z" fill="black"/>
</svg>
