<svg width="18" height="4" viewBox="0 0 18 4" fill="none" xmlns="http://www.w3.org/2000/svg">
<path d="M16.3849 2.23077C16.7247 2.23077 17.0003 1.9552 17.0003 1.61538C17.0003 1.27557 16.7247 1 16.3849 1C16.0451 1 15.7695 1.27557 15.7695 1.61538C15.7695 1.9552 16.0451 2.23077 16.3849 2.23077Z" fill="black" stroke="black" stroke-width="2" stroke-linecap="round" stroke-linejoin="round"/>
<path d="M9.00015 2.23077C9.33997 2.23077 9.61553 1.9552 9.61553 1.61538C9.61553 1.27557 9.33997 1 9.00015 1C8.66033 1 8.38477 1.27557 8.38477 1.61538C8.38477 1.9552 8.66033 2.23077 9.00015 2.23077Z" fill="black" stroke="black" stroke-width="2" stroke-linecap="round" stroke-linejoin="round"/>
<path d="M1.61538 2.23077C1.95525 2.23077 2.23077 1.9552 2.23077 1.61538C2.23077 1.27557 1.95525 1 1.61538 1C1.27552 1 1 1.27557 1 1.61538C1 1.9552 1.27552 2.23077 1.61538 2.23077Z" fill="black" stroke="black" stroke-width="2" stroke-linecap="round" stroke-linejoin="round"/>
</svg>
